<mxfile host="drawio-plugin" modified="2021-10-14T18:02:17.613Z" agent="5.0 (X11; Linux x86_64) AppleWebKit/537.36 (KHTML, like Gecko) Chrome/87.0.4280.141 Safari/537.36" version="14.7.4" etag="4QNpSEDgl_iZfP5h9M3S" type="embed"><diagram id="mBz3AGuGxKc1HoNxblct" name="team"><mxGraphModel dx="966" dy="698" grid="1" gridSize="10" guides="1" tooltips="1" connect="1" arrows="1" fold="1" page="1" pageScale="1" pageWidth="850" pageHeight="1100" math="0" shadow="0"><root><mxCell id="0"/><mxCell id="1" parent="0"/><mxCell id="2" value="intern" style="rounded=0;whiteSpace=wrap;html=1;fontStyle=1" parent="1" vertex="1"><mxGeometry x="10" y="410" width="110" height="30" as="geometry"/></mxCell><mxCell id="3" value="junior" style="rounded=0;whiteSpace=wrap;html=1;fillColor=#ffff88;strokeColor=#36393d;fontStyle=1" parent="1" vertex="1"><mxGeometry x="10" y="440" width="110" height="30" as="geometry"/></mxCell><mxCell id="4" value="senior" style="rounded=0;whiteSpace=wrap;html=1;strokeColor=#36393d;fontStyle=1;fillColor=#808080;" parent="1" vertex="1"><mxGeometry x="10" y="530" width="110" height="30" as="geometry"/></mxCell><mxCell id="5" value="regular" style="rounded=0;whiteSpace=wrap;html=1;fillColor=#cdeb8b;strokeColor=#36393d;fontStyle=1;" parent="1" vertex="1"><mxGeometry x="10" y="470" width="110" height="30" as="geometry"/></mxCell><mxCell id="6" value="regular 2" style="rounded=0;whiteSpace=wrap;html=1;strokeColor=#36393d;fontStyle=1;fillColor=#FFCC99;" parent="1" vertex="1"><mxGeometry x="10" y="500" width="110" height="30" as="geometry"/></mxCell><mxCell id="7" value="madalina" style="rounded=0;whiteSpace=wrap;html=1;fillColor=#cdeb8b;strokeColor=#36393d;fontStyle=1;" parent="1" vertex="1"><mxGeometry x="10" y="70" width="110" height="30" as="geometry"/></mxCell><mxCell id="8" value="mihaela" style="rounded=0;whiteSpace=wrap;html=1;fillColor=#cdeb8b;strokeColor=#36393d;fontStyle=1;" parent="1" vertex="1"><mxGeometry x="10" y="100" width="110" height="30" as="geometry"/></mxCell><mxCell id="9" value="dana" style="rounded=0;whiteSpace=wrap;html=1;strokeColor=#36393d;fontStyle=1;fillColor=#FFCC99;" parent="1" vertex="1"><mxGeometry x="10" y="130" width="110" height="30" as="geometry"/></mxCell><mxCell id="10" value="florentina" style="rounded=0;whiteSpace=wrap;html=1;fillColor=#ffff88;strokeColor=#36393d;fontStyle=1" parent="1" vertex="1"><mxGeometry x="170" y="70" width="110" height="30" as="geometry"/></mxCell><mxCell id="11" value="ioan" style="rounded=0;whiteSpace=wrap;html=1;fillColor=#cdeb8b;strokeColor=#36393d;fontStyle=1;" parent="1" vertex="1"><mxGeometry x="170" y="130" width="110" height="30" as="geometry"/></mxCell><mxCell id="12" value="alin" style="rounded=0;whiteSpace=wrap;html=1;fillColor=#ffff88;strokeColor=#36393d;fontStyle=1" parent="1" vertex="1"><mxGeometry x="170" y="100" width="110" height="30" as="geometry"/></mxCell><mxCell id="13" value="giani" style="rounded=0;whiteSpace=wrap;html=1;strokeColor=#36393d;fontStyle=1;fillColor=#808080;" parent="1" vertex="1"><mxGeometry x="330" y="130" width="110" height="30" as="geometry"/></mxCell><mxCell id="14" value="george" style="rounded=0;whiteSpace=wrap;html=1;fillColor=#cdeb8b;strokeColor=#36393d;fontStyle=1;" parent="1" vertex="1"><mxGeometry x="330" y="100" width="110" height="30" as="geometry"/></mxCell><mxCell id="15" value="ana" style="rounded=0;whiteSpace=wrap;html=1;fillColor=#ffff88;strokeColor=#36393d;fontStyle=1" parent="1" vertex="1"><mxGeometry x="330" y="70" width="110" height="30" as="geometry"/></mxCell><mxCell id="16" value="ionut" style="rounded=0;whiteSpace=wrap;html=1;strokeColor=#36393d;fontStyle=1;fillColor=#808080;" parent="1" vertex="1"><mxGeometry x="490" y="100" width="110" height="30" as="geometry"/></mxCell><mxCell id="17" value="vlad" style="rounded=0;whiteSpace=wrap;html=1;fillColor=#cdeb8b;strokeColor=#36393d;fontStyle=1;" parent="1" vertex="1"><mxGeometry x="490" y="70" width="110" height="30" as="geometry"/></mxCell><mxCell id="18" value="Team 1" style="rounded=0;whiteSpace=wrap;html=1;fontStyle=1;gradientColor=#d5739d;fillColor=#e6d0de;strokeColor=#996185;" parent="1" vertex="1"><mxGeometry x="10" y="40" width="110" height="30" as="geometry"/></mxCell><mxCell id="19" value="Team 2" style="rounded=0;whiteSpace=wrap;html=1;fontStyle=1;gradientColor=#d5739d;fillColor=#e6d0de;strokeColor=#996185;" parent="1" vertex="1"><mxGeometry x="170" y="40" width="110" height="30" as="geometry"/></mxCell><mxCell id="20" value="Team 3" style="rounded=0;whiteSpace=wrap;html=1;fontStyle=1;gradientColor=#d5739d;fillColor=#e6d0de;strokeColor=#996185;" parent="1" vertex="1"><mxGeometry x="330" y="40" width="110" height="30" as="geometry"/></mxCell><mxCell id="21" value="Team 4" style="rounded=0;whiteSpace=wrap;html=1;fontStyle=1;gradientColor=#d5739d;fillColor=#e6d0de;strokeColor=#996185;" parent="1" vertex="1"><mxGeometry x="490" y="40" width="110" height="30" as="geometry"/></mxCell><mxCell id="22" value="project" style="rounded=0;whiteSpace=wrap;html=1;fontStyle=1" parent="1" vertex="1"><mxGeometry x="10" y="10" width="110" height="30" as="geometry"/></mxCell><mxCell id="23" value="project" style="rounded=0;whiteSpace=wrap;html=1;fontStyle=1" parent="1" vertex="1"><mxGeometry x="170" y="10" width="110" height="30" as="geometry"/></mxCell><mxCell id="24" value="project" style="rounded=0;whiteSpace=wrap;html=1;fontStyle=1" parent="1" vertex="1"><mxGeometry x="330" y="10" width="110" height="30" as="geometry"/></mxCell><mxCell id="25" value="project" style="rounded=0;whiteSpace=wrap;html=1;fontStyle=1" parent="1" vertex="1"><mxGeometry x="490" y="10" width="110" height="30" as="geometry"/></mxCell><mxCell id="26" value="" style="group" parent="1" vertex="1" connectable="0"><mxGeometry x="10" y="200" width="110" height="60" as="geometry"/></mxCell><mxCell id="27" value="stefan" style="rounded=0;whiteSpace=wrap;html=1;fillColor=#ffff88;strokeColor=#36393d;fontStyle=1" parent="26" vertex="1"><mxGeometry y="30" width="110" height="30" as="geometry"/></mxCell><mxCell id="28" value="project" style="rounded=0;whiteSpace=wrap;html=1;fontStyle=1" parent="26" vertex="1"><mxGeometry width="110" height="30" as="geometry"/></mxCell><mxCell id="29" value="" style="group" parent="1" vertex="1" connectable="0"><mxGeometry x="130" y="200" width="110" height="60" as="geometry"/></mxCell><mxCell id="30" value="catalina" style="rounded=0;whiteSpace=wrap;html=1;fillColor=#cdeb8b;strokeColor=#36393d;fontStyle=1;" parent="29" vertex="1"><mxGeometry y="30" width="110" height="30" as="geometry"/></mxCell><mxCell id="31" value="project" style="rounded=0;whiteSpace=wrap;html=1;fontStyle=1" parent="29" vertex="1"><mxGeometry width="110" height="30" as="geometry"/></mxCell><mxCell id="32" value="" style="group" parent="1" vertex="1" connectable="0"><mxGeometry x="250" y="200" width="110" height="60" as="geometry"/></mxCell><mxCell id="33" value="cristi" style="rounded=0;whiteSpace=wrap;html=1;fillColor=#cdeb8b;strokeColor=#36393d;fontStyle=1;" parent="32" vertex="1"><mxGeometry y="30" width="110" height="30" as="geometry"/></mxCell><mxCell id="34" value="project" style="rounded=0;whiteSpace=wrap;html=1;fontStyle=1" parent="32" vertex="1"><mxGeometry width="110" height="30" as="geometry"/></mxCell><mxCell id="35" value="" style="group" parent="1" vertex="1" connectable="0"><mxGeometry x="370" y="200" width="110" height="60" as="geometry"/></mxCell><mxCell id="36" value="brebenel" style="rounded=0;whiteSpace=wrap;html=1;strokeColor=#36393d;fontStyle=1;fillColor=#FFCC99;" parent="35" vertex="1"><mxGeometry y="30" width="110" height="30" as="geometry"/></mxCell><mxCell id="37" value="project" style="rounded=0;whiteSpace=wrap;html=1;fontStyle=1" parent="35" vertex="1"><mxGeometry width="110" height="30" as="geometry"/></mxCell><mxCell id="38" value="" style="group" parent="1" vertex="1" connectable="0"><mxGeometry x="490" y="200" width="110" height="60" as="geometry"/></mxCell><mxCell id="39" value="david" style="rounded=0;whiteSpace=wrap;html=1;strokeColor=#36393d;fontStyle=1;fillColor=#808080;" parent="38" vertex="1"><mxGeometry y="30" width="110" height="30" as="geometry"/></mxCell><mxCell id="40" value="project" style="rounded=0;whiteSpace=wrap;html=1;fontStyle=1" parent="38" vertex="1"><mxGeometry width="110" height="30" as="geometry"/></mxCell><mxCell id="41" value="3000" style="rounded=0;whiteSpace=wrap;html=1;fontStyle=1" parent="1" vertex="1"><mxGeometry x="120" y="410" width="50" height="30" as="geometry"/></mxCell><mxCell id="42" value="4000" style="rounded=0;whiteSpace=wrap;html=1;fontStyle=1" parent="1" vertex="1"><mxGeometry x="120" y="440" width="50" height="30" as="geometry"/></mxCell><mxCell id="43" value="6000" style="rounded=0;whiteSpace=wrap;html=1;fontStyle=1" parent="1" vertex="1"><mxGeometry x="120" y="470" width="50" height="30" as="geometry"/></mxCell><mxCell id="44" value="15000" style="rounded=0;whiteSpace=wrap;html=1;fontStyle=1" parent="1" vertex="1"><mxGeometry x="120" y="530" width="50" height="30" as="geometry"/></mxCell><mxCell id="45" value="10000" style="rounded=0;whiteSpace=wrap;html=1;fontStyle=1" parent="1" vertex="1"><mxGeometry x="120" y="500" width="50" height="30" as="geometry"/></mxCell><mxCell id="46" value="product owner" style="rounded=0;whiteSpace=wrap;html=1;fillColor=#dae8fc;strokeColor=#6c8ebf;fontStyle=1;gradientColor=#7ea6e0;" parent="1" vertex="1"><mxGeometry x="10" y="660" width="110" height="30" as="geometry"/></mxCell><mxCell id="48" value="8000" style="rounded=0;whiteSpace=wrap;html=1;fontStyle=1" parent="1" vertex="1"><mxGeometry x="120" y="660" width="50" height="30" as="geometry"/></mxCell><mxCell id="49" value="scrum master" style="rounded=0;whiteSpace=wrap;html=1;fillColor=#e6d0de;strokeColor=#996185;fontStyle=1;gradientColor=#d5739d;" parent="1" vertex="1"><mxGeometry x="10" y="690" width="110" height="30" as="geometry"/></mxCell><mxCell id="50" value="8000" style="rounded=0;whiteSpace=wrap;html=1;fontStyle=1" parent="1" vertex="1"><mxGeometry x="120" y="690" width="50" height="30" as="geometry"/></mxCell><mxCell id="51" value="manager" style="rounded=0;whiteSpace=wrap;html=1;fillColor=#f8cecc;strokeColor=#b85450;fontStyle=1;gradientColor=#ea6b66;" parent="1" vertex="1"><mxGeometry x="10" y="720" width="110" height="30" as="geometry"/></mxCell><mxCell id="52" value="10000" style="rounded=0;whiteSpace=wrap;html=1;fontStyle=1" parent="1" vertex="1"><mxGeometry x="120" y="720" width="50" height="30" as="geometry"/></mxCell><mxCell id="53" value="cosmin" style="rounded=0;whiteSpace=wrap;html=1;fillColor=#dae8fc;strokeColor=#6c8ebf;fontStyle=1;gradientColor=#7ea6e0;" parent="1" vertex="1"><mxGeometry x="670" y="10" width="110" height="30" as="geometry"/></mxCell><mxCell id="54" value="cosmin" style="rounded=0;whiteSpace=wrap;html=1;fillColor=#e6d0de;strokeColor=#996185;fontStyle=1;gradientColor=#d5739d;" parent="1" vertex="1"><mxGeometry x="670" y="50" width="110" height="30" as="geometry"/></mxCell><mxCell id="55" value="camelia" style="rounded=0;whiteSpace=wrap;html=1;fillColor=#f8cecc;strokeColor=#b85450;fontStyle=1;gradientColor=#ea6b66;" parent="1" vertex="1"><mxGeometry x="670" y="90" width="110" height="30" as="geometry"/></mxCell><mxCell id="56" value="designer" style="rounded=0;whiteSpace=wrap;html=1;fillColor=#ffcd28;strokeColor=#d79b00;fontStyle=1;gradientColor=#ffa500;" parent="1" vertex="1"><mxGeometry x="10" y="580" width="110" height="30" as="geometry"/></mxCell><mxCell id="57" value="5000" style="rounded=0;whiteSpace=wrap;html=1;fontStyle=1" parent="1" vertex="1"><mxGeometry x="120" y="580" width="50" height="30" as="geometry"/></mxCell><mxCell id="58" value="tester" style="rounded=0;whiteSpace=wrap;html=1;fillColor=#d5e8d4;strokeColor=#82b366;fontStyle=1;gradientColor=#97d077;" parent="1" vertex="1"><mxGeometry x="10" y="610" width="110" height="30" as="geometry"/></mxCell><mxCell id="59" value="5000" style="rounded=0;whiteSpace=wrap;html=1;fontStyle=1" parent="1" vertex="1"><mxGeometry x="120" y="610" width="50" height="30" as="geometry"/></mxCell><mxCell id="60" value="intern" style="rounded=0;whiteSpace=wrap;html=1;fontStyle=1" vertex="1" parent="1"><mxGeometry x="10" y="410" width="110" height="30" as="geometry"/></mxCell><mxCell id="61" value="junior" style="rounded=0;whiteSpace=wrap;html=1;fillColor=#ffff88;strokeColor=#36393d;fontStyle=1" vertex="1" parent="1"><mxGeometry x="10" y="440" width="110" height="30" as="geometry"/></mxCell><mxCell id="62" value="senior" style="rounded=0;whiteSpace=wrap;html=1;strokeColor=#36393d;fontStyle=1;fillColor=#808080;" vertex="1" parent="1"><mxGeometry x="10" y="530" width="110" height="30" as="geometry"/></mxCell><mxCell id="63" value="regular" style="rounded=0;whiteSpace=wrap;html=1;fillColor=#cdeb8b;strokeColor=#36393d;fontStyle=1;" vertex="1" parent="1"><mxGeometry x="10" y="470" width="110" height="30" as="geometry"/></mxCell><mxCell id="64" value="regular 2" style="rounded=0;whiteSpace=wrap;html=1;strokeColor=#36393d;fontStyle=1;fillColor=#FFCC99;" vertex="1" parent="1"><mxGeometry x="10" y="500" width="110" height="30" as="geometry"/></mxCell><mxCell id="65" value="madalina" style="rounded=0;whiteSpace=wrap;html=1;fillColor=#cdeb8b;strokeColor=#36393d;fontStyle=1;" vertex="1" parent="1"><mxGeometry x="10" y="70" width="110" height="30" as="geometry"/></mxCell><mxCell id="66" value="mihaela" style="rounded=0;whiteSpace=wrap;html=1;fillColor=#cdeb8b;strokeColor=#36393d;fontStyle=1;" vertex="1" parent="1"><mxGeometry x="10" y="100" width="110" height="30" as="geometry"/></mxCell><mxCell id="67" value="dana" style="rounded=0;whiteSpace=wrap;html=1;strokeColor=#36393d;fontStyle=1;fillColor=#FFCC99;" vertex="1" parent="1"><mxGeometry x="10" y="130" width="110" height="30" as="geometry"/></mxCell><mxCell id="68" value="florentina" style="rounded=0;whiteSpace=wrap;html=1;fillColor=#ffff88;strokeColor=#36393d;fontStyle=1" vertex="1" parent="1"><mxGeometry x="170" y="70" width="110" height="30" as="geometry"/></mxCell><mxCell id="69" value="ioan" style="rounded=0;whiteSpace=wrap;html=1;fillColor=#cdeb8b;strokeColor=#36393d;fontStyle=1;" vertex="1" parent="1"><mxGeometry x="170" y="130" width="110" height="30" as="geometry"/></mxCell><mxCell id="70" value="alin" style="rounded=0;whiteSpace=wrap;html=1;fillColor=#ffff88;strokeColor=#36393d;fontStyle=1" vertex="1" parent="1"><mxGeometry x="170" y="100" width="110" height="30" as="geometry"/></mxCell><mxCell id="71" value="giani" style="rounded=0;whiteSpace=wrap;html=1;strokeColor=#36393d;fontStyle=1;fillColor=#808080;" vertex="1" parent="1"><mxGeometry x="330" y="130" width="110" height="30" as="geometry"/></mxCell><mxCell id="72" value="george" style="rounded=0;whiteSpace=wrap;html=1;fillColor=#cdeb8b;strokeColor=#36393d;fontStyle=1;" vertex="1" parent="1"><mxGeometry x="330" y="100" width="110" height="30" as="geometry"/></mxCell><mxCell id="73" value="ana" style="rounded=0;whiteSpace=wrap;html=1;fillColor=#ffff88;strokeColor=#36393d;fontStyle=1" vertex="1" parent="1"><mxGeometry x="330" y="70" width="110" height="30" as="geometry"/></mxCell><mxCell id="74" value="ionut" style="rounded=0;whiteSpace=wrap;html=1;strokeColor=#36393d;fontStyle=1;fillColor=#808080;" vertex="1" parent="1"><mxGeometry x="490" y="100" width="110" height="30" as="geometry"/></mxCell><mxCell id="75" value="vlad" style="rounded=0;whiteSpace=wrap;html=1;fillColor=#cdeb8b;strokeColor=#36393d;fontStyle=1;" vertex="1" parent="1"><mxGeometry x="490" y="70" width="110" height="30" as="geometry"/></mxCell><mxCell id="76" value="Team 1" style="rounded=0;whiteSpace=wrap;html=1;fontStyle=1;gradientColor=#d5739d;fillColor=#e6d0de;strokeColor=#996185;" vertex="1" parent="1"><mxGeometry x="10" y="40" width="110" height="30" as="geometry"/></mxCell><mxCell id="77" value="Team 2" style="rounded=0;whiteSpace=wrap;html=1;fontStyle=1;gradientColor=#d5739d;fillColor=#e6d0de;strokeColor=#996185;" vertex="1" parent="1"><mxGeometry x="170" y="40" width="110" height="30" as="geometry"/></mxCell><mxCell id="78" value="Enigma" style="rounded=0;whiteSpace=wrap;html=1;fontStyle=1;gradientColor=#d5739d;fillColor=#e6d0de;strokeColor=#996185;" vertex="1" parent="1"><mxGeometry x="330" y="40" width="110" height="30" as="geometry"/></mxCell><mxCell id="79" value="Team 4" style="rounded=0;whiteSpace=wrap;html=1;fontStyle=1;gradientColor=#d5739d;fillColor=#e6d0de;strokeColor=#996185;" vertex="1" parent="1"><mxGeometry x="490" y="40" width="110" height="30" as="geometry"/></mxCell><mxCell id="80" value="animal-app" style="rounded=0;whiteSpace=wrap;html=1;fontStyle=1" vertex="1" parent="1"><mxGeometry x="10" y="10" width="110" height="30" as="geometry"/></mxCell><mxCell id="81" value="welness-app" style="rounded=0;whiteSpace=wrap;html=1;fontStyle=1" vertex="1" parent="1"><mxGeometry x="170" y="10" width="110" height="30" as="geometry"/></mxCell><mxCell id="82" value="my-home" style="rounded=0;whiteSpace=wrap;html=1;fontStyle=1" vertex="1" parent="1"><mxGeometry x="330" y="10" width="110" height="30" as="geometry"/></mxCell><mxCell id="83" value="marketplace" style="rounded=0;whiteSpace=wrap;html=1;fontStyle=1" vertex="1" parent="1"><mxGeometry x="490" y="10" width="110" height="30" as="geometry"/></mxCell><mxCell id="84" value="" style="group" vertex="1" connectable="0" parent="1"><mxGeometry x="10" y="200" width="110" height="60" as="geometry"/></mxCell><mxCell id="85" value="stefan" style="rounded=0;whiteSpace=wrap;html=1;fillColor=#ffff88;strokeColor=#36393d;fontStyle=1" vertex="1" parent="84"><mxGeometry y="30" width="110" height="30" as="geometry"/></mxCell><mxCell id="86" value="patent-app" style="rounded=0;whiteSpace=wrap;html=1;fontStyle=1" vertex="1" parent="84"><mxGeometry width="110" height="30" as="geometry"/></mxCell><mxCell id="87" value="" style="group" vertex="1" connectable="0" parent="1"><mxGeometry x="130" y="200" width="110" height="60" as="geometry"/></mxCell><mxCell id="88" value="catalina" style="rounded=0;whiteSpace=wrap;html=1;fillColor=#cdeb8b;strokeColor=#36393d;fontStyle=1;" vertex="1" parent="87"><mxGeometry y="30" width="110" height="30" as="geometry"/></mxCell><mxCell id="89" value="travel-app" style="rounded=0;whiteSpace=wrap;html=1;fontStyle=1" vertex="1" parent="87"><mxGeometry width="110" height="30" as="geometry"/></mxCell><mxCell id="90" value="" style="group" vertex="1" connectable="0" parent="1"><mxGeometry x="250" y="200" width="110" height="60" as="geometry"/></mxCell><mxCell id="91" value="cristi" style="rounded=0;whiteSpace=wrap;html=1;fillColor=#cdeb8b;strokeColor=#36393d;fontStyle=1;" vertex="1" parent="90"><mxGeometry y="30" width="110" height="30" as="geometry"/></mxCell><mxCell id="92" value="task-app" style="rounded=0;whiteSpace=wrap;html=1;fontStyle=1" vertex="1" parent="90"><mxGeometry width="110" height="30" as="geometry"/></mxCell><mxCell id="93" value="" style="group" vertex="1" connectable="0" parent="1"><mxGeometry x="370" y="200" width="110" height="60" as="geometry"/></mxCell><mxCell id="94" value="brebenel" style="rounded=0;whiteSpace=wrap;html=1;strokeColor=#36393d;fontStyle=1;fillColor=#FFCC99;" vertex="1" parent="93"><mxGeometry y="30" width="110" height="30" as="geometry"/></mxCell><mxCell id="95" value="cake-shop" style="rounded=0;whiteSpace=wrap;html=1;fontStyle=1" vertex="1" parent="93"><mxGeometry width="110" height="30" as="geometry"/></mxCell><mxCell id="96" value="" style="group" vertex="1" connectable="0" parent="1"><mxGeometry x="490" y="200" width="110" height="60" as="geometry"/></mxCell><mxCell id="97" value="david" style="rounded=0;whiteSpace=wrap;html=1;strokeColor=#36393d;fontStyle=1;fillColor=#808080;" vertex="1" parent="96"><mxGeometry y="30" width="110" height="30" as="geometry"/></mxCell><mxCell id="98" value="project" style="rounded=0;whiteSpace=wrap;html=1;fontStyle=1" vertex="1" parent="96"><mxGeometry width="110" height="30" as="geometry"/></mxCell><mxCell id="99" value="3000" style="rounded=0;whiteSpace=wrap;html=1;fontStyle=1" vertex="1" parent="1"><mxGeometry x="120" y="410" width="50" height="30" as="geometry"/></mxCell><mxCell id="100" value="4000" style="rounded=0;whiteSpace=wrap;html=1;fontStyle=1" vertex="1" parent="1"><mxGeometry x="120" y="440" width="50" height="30" as="geometry"/></mxCell><mxCell id="101" value="6000" style="rounded=0;whiteSpace=wrap;html=1;fontStyle=1" vertex="1" parent="1"><mxGeometry x="120" y="470" width="50" height="30" as="geometry"/></mxCell><mxCell id="102" value="15000" style="rounded=0;whiteSpace=wrap;html=1;fontStyle=1" vertex="1" parent="1"><mxGeometry x="120" y="530" width="50" height="30" as="geometry"/></mxCell><mxCell id="103" value="10000" style="rounded=0;whiteSpace=wrap;html=1;fontStyle=1" vertex="1" parent="1"><mxGeometry x="120" y="500" width="50" height="30" as="geometry"/></mxCell><mxCell id="104" value="product owner" style="rounded=0;whiteSpace=wrap;html=1;fillColor=#dae8fc;strokeColor=#6c8ebf;fontStyle=1;gradientColor=#7ea6e0;" vertex="1" parent="1"><mxGeometry x="10" y="660" width="110" height="30" as="geometry"/></mxCell><mxCell id="105" value="8000" style="rounded=0;whiteSpace=wrap;html=1;fontStyle=1" vertex="1" parent="1"><mxGeometry x="120" y="660" width="50" height="30" as="geometry"/></mxCell><mxCell id="106" value="scrum master" style="rounded=0;whiteSpace=wrap;html=1;fillColor=#e6d0de;strokeColor=#996185;fontStyle=1;gradientColor=#d5739d;" vertex="1" parent="1"><mxGeometry x="10" y="690" width="110" height="30" as="geometry"/></mxCell><mxCell id="107" value="8000" style="rounded=0;whiteSpace=wrap;html=1;fontStyle=1" vertex="1" parent="1"><mxGeometry x="120" y="690" width="50" height="30" as="geometry"/></mxCell><mxCell id="108" value="manager" style="rounded=0;whiteSpace=wrap;html=1;fillColor=#f8cecc;strokeColor=#b85450;fontStyle=1;gradientColor=#ea6b66;" vertex="1" parent="1"><mxGeometry x="10" y="720" width="110" height="30" as="geometry"/></mxCell><mxCell id="109" value="10000" style="rounded=0;whiteSpace=wrap;html=1;fontStyle=1" vertex="1" parent="1"><mxGeometry x="120" y="720" width="50" height="30" as="geometry"/></mxCell><mxCell id="110" value="cosmin" style="rounded=0;whiteSpace=wrap;html=1;fillColor=#dae8fc;strokeColor=#6c8ebf;fontStyle=1;gradientColor=#7ea6e0;" vertex="1" parent="1"><mxGeometry x="670" y="10" width="110" height="30" as="geometry"/></mxCell><mxCell id="111" value="cosmin" style="rounded=0;whiteSpace=wrap;html=1;fillColor=#e6d0de;strokeColor=#996185;fontStyle=1;gradientColor=#d5739d;" vertex="1" parent="1"><mxGeometry x="670" y="50" width="110" height="30" as="geometry"/></mxCell><mxCell id="112" value="camelia" style="rounded=0;whiteSpace=wrap;html=1;fillColor=#f8cecc;strokeColor=#b85450;fontStyle=1;gradientColor=#ea6b66;" vertex="1" parent="1"><mxGeometry x="670" y="90" width="110" height="30" as="geometry"/></mxCell><mxCell id="113" value="designer" style="rounded=0;whiteSpace=wrap;html=1;fillColor=#ffcd28;strokeColor=#d79b00;fontStyle=1;gradientColor=#ffa500;" vertex="1" parent="1"><mxGeometry x="10" y="580" width="110" height="30" as="geometry"/></mxCell><mxCell id="114" value="5000" style="rounded=0;whiteSpace=wrap;html=1;fontStyle=1" vertex="1" parent="1"><mxGeometry x="120" y="580" width="50" height="30" as="geometry"/></mxCell><mxCell id="115" value="tester" style="rounded=0;whiteSpace=wrap;html=1;fillColor=#d5e8d4;strokeColor=#82b366;fontStyle=1;gradientColor=#97d077;" vertex="1" parent="1"><mxGeometry x="10" y="610" width="110" height="30" as="geometry"/></mxCell><mxCell id="116" value="5000" style="rounded=0;whiteSpace=wrap;html=1;fontStyle=1" vertex="1" parent="1"><mxGeometry x="120" y="610" width="50" height="30" as="geometry"/></mxCell></root></mxGraphModel></diagram></mxfile>